<?xml version="1.0" encoding="UTF-8" standalone="no"?>
<!-- Created with Inkscape (http://www.inkscape.org/) -->

<svg
   xmlns:osb="http://www.openswatchbook.org/uri/2009/osb"
   xmlns:dc="http://purl.org/dc/elements/1.1/"
   xmlns:cc="http://creativecommons.org/ns#"
   xmlns:rdf="http://www.w3.org/1999/02/22-rdf-syntax-ns#"
   xmlns:svg="http://www.w3.org/2000/svg"
   xmlns="http://www.w3.org/2000/svg"
   xmlns:xlink="http://www.w3.org/1999/xlink"
   xmlns:sodipodi="http://sodipodi.sourceforge.net/DTD/sodipodi-0.dtd"
   xmlns:inkscape="http://www.inkscape.org/namespaces/inkscape"
   width="90"
   height="90"
   viewBox="0 0 90 90.000001"
   id="svg3762"
   version="1.1"
   inkscape:version="0.91 r13725"
   sodipodi:docname="mouse90.svg">
  <defs
     id="defs3764">
    <linearGradient
       inkscape:collect="always"
       xlink:href="#original-3"
       id="linearGradient17918"
       gradientUnits="userSpaceOnUse"
       x1="-55.97699"
       y1="187.85423"
       x2="617.90619"
       y2="187.85423" />
    <linearGradient
       id="original-3"
       osb:paint="solid">
      <stop
         style="stop-color:#3a5795;stop-opacity:1;"
         offset="0"
         id="stop17520" />
    </linearGradient>
    <path
       inkscape:export-ydpi="2.136869"
       inkscape:export-xdpi="2.136869"
       sodipodi:nodetypes="cc"
       inkscape:connector-curvature="0"
       id="path17491"
       d="M 99.163274,310.34921 C 147.3562,132.94432 332.71363,107.83987 332.71363,107.83987"
       style="fill:none;fill-rule:evenodd;stroke:#000000;stroke-width:0;stroke-linecap:butt;stroke-linejoin:miter;stroke-miterlimit:4;stroke-dasharray:none;stroke-opacity:1" />
    <path
       inkscape:export-ydpi="2.136869"
       inkscape:export-xdpi="2.136869"
       sodipodi:nodetypes="cc"
       inkscape:connector-curvature="0"
       id="path3803"
       d="M 99.163274,310.34921 C 147.3562,132.94432 332.71363,107.83987 332.71363,107.83987"
       style="fill:none;fill-rule:evenodd;stroke:#000000;stroke-width:0;stroke-linecap:butt;stroke-linejoin:miter;stroke-miterlimit:4;stroke-dasharray:none;stroke-opacity:1" />
    <path
       inkscape:export-ydpi="2.136869"
       inkscape:export-xdpi="2.136869"
       sodipodi:nodetypes="cc"
       inkscape:connector-curvature="0"
       id="path3821"
       d="M 99.163274,310.34921 C 147.3562,132.94432 332.71363,107.83987 332.71363,107.83987"
       style="fill:none;fill-rule:evenodd;stroke:#000000;stroke-width:0;stroke-linecap:butt;stroke-linejoin:miter;stroke-miterlimit:4;stroke-dasharray:none;stroke-opacity:1" />
    <path
       inkscape:export-ydpi="2.136869"
       inkscape:export-xdpi="2.136869"
       sodipodi:nodetypes="cc"
       inkscape:connector-curvature="0"
       id="path3839"
       d="M 99.163274,310.34921 C 147.3562,132.94432 332.71363,107.83987 332.71363,107.83987"
       style="fill:none;fill-rule:evenodd;stroke:#000000;stroke-width:0;stroke-linecap:butt;stroke-linejoin:miter;stroke-miterlimit:4;stroke-dasharray:none;stroke-opacity:1" />
    <linearGradient
       inkscape:collect="always"
       xlink:href="#original-3"
       id="linearGradient4046"
       gradientUnits="userSpaceOnUse"
       x1="-55.97699"
       y1="187.85423"
       x2="617.90619"
       y2="187.85423" />
    <linearGradient
       inkscape:collect="always"
       xlink:href="#original-3"
       id="linearGradient4050"
       gradientUnits="userSpaceOnUse"
       x1="-55.97699"
       y1="187.85423"
       x2="617.90619"
       y2="187.85423" />
    <linearGradient
       inkscape:collect="always"
       xlink:href="#original-3"
       id="linearGradient4054"
       gradientUnits="userSpaceOnUse"
       x1="-55.97699"
       y1="187.85423"
       x2="617.90619"
       y2="187.85423" />
    <linearGradient
       inkscape:collect="always"
       xlink:href="#original-3"
       id="linearGradient4204"
       gradientUnits="userSpaceOnUse"
       x1="40.424568"
       y1="185.05814"
       x2="326.95206"
       y2="185.05814" />
    <linearGradient
       inkscape:collect="always"
       xlink:href="#original-3"
       id="linearGradient4206"
       gradientUnits="userSpaceOnUse"
       x1="40.424568"
       y1="185.05814"
       x2="326.95206"
       y2="185.05814" />
    <linearGradient
       inkscape:collect="always"
       xlink:href="#original-3"
       id="linearGradient4208"
       gradientUnits="userSpaceOnUse"
       x1="40.424568"
       y1="185.05814"
       x2="326.95206"
       y2="185.05814" />
    <linearGradient
       inkscape:collect="always"
       xlink:href="#original-3"
       id="linearGradient4210"
       gradientUnits="userSpaceOnUse"
       x1="40.424568"
       y1="185.05814"
       x2="326.95206"
       y2="185.05814" />
  </defs>
  <sodipodi:namedview
     id="base"
     pagecolor="#ffffff"
     bordercolor="#666666"
     borderopacity="1.0"
     inkscape:pageopacity="0.0"
     inkscape:pageshadow="2"
     inkscape:zoom="5.6"
     inkscape:cx="33.17812"
     inkscape:cy="65.257112"
     inkscape:document-units="px"
     inkscape:current-layer="layer1"
     showgrid="false"
     units="px"
     inkscape:window-width="1920"
     inkscape:window-height="1031"
     inkscape:window-x="0"
     inkscape:window-y="27"
     inkscape:window-maximized="1" />
  <metadata
     id="metadata3767">
    <rdf:RDF>
      <cc:Work
         rdf:about="">
        <dc:format>image/svg+xml</dc:format>
        <dc:type
           rdf:resource="http://purl.org/dc/dcmitype/StillImage" />
        <dc:title></dc:title>
      </cc:Work>
    </rdf:RDF>
  </metadata>
  <g
     inkscape:label="Layer 1"
     inkscape:groupmode="layer"
     id="layer1"
     transform="translate(0,-962.36213)">
    <g
       id="g17828"
       transform="matrix(0.13242629,0,0,0.12740866,7.8587063,982.41469)"
       inkscape:export-xdpi="40.93"
       inkscape:export-ydpi="40.93">
      <circle
         style="fill:url(#linearGradient4046);fill-opacity:1;fill-rule:nonzero;stroke:#dbc565;stroke-width:0.875;stroke-miterlimit:4;stroke-dasharray:none;stroke-opacity:0"
         id="circle17830"
         cx="280.9646"
         cy="187.85423"
         r="336.50409"
         inkscape:export-xdpi="2.136869"
         inkscape:export-ydpi="2.136869" />
      <path
         style="fill:#1f1f1f;stroke:#000000"
         inkscape:connector-curvature="0"
         id="path17832"
         d="m 442.35213,42.39 c -0.41667,3.125 -60.642,8.8685 -76.146,-3.2292 -15.504,-12.0977 13.226,-10.699 18.542,-10.833 43.326,-1.0946 58.021,10.937 57.604,14.062 z"
         inkscape:export-xdpi="2.136869"
         inkscape:export-ydpi="2.136869" />
      <g
         id="g17834"
         transform="translate(23.380164,9.7975012)"
         style="fill:#ffffff"
         inkscape:export-xdpi="2.136869"
         inkscape:export-ydpi="2.136869">
        <path
           d="m 543.91213,116.46 c -16.667,-57.5 -169.17,-153.33 -318.33,-100 -167.8,59.996 -294.09,222.65 -183.33,336.67 85.544,88.059 240.64,-30.071 292.5,-69.167 54.167,-40.833 215,-120 209.17,-167.5 z"
           id="path17836"
           style="fill:#ffffff;stroke:#000000"
           inkscape:connector-curvature="0" />
        <path
           d="m 541.41213,111.96 c -21.118,-56.018 -166.67,-148.83 -315.83,-95.5 -167.8,59.996 -300.8,256.31 -163.33,305 67.898,24.048 189.75,-62.682 270.83,-102.5 100.16,-49.186 213,-84.806 208.33,-107 z"
           id="path17838"
           style="fill:#ffffff;stroke:#000000"
           inkscape:connector-curvature="0" />
        <path
           d="m 538.91213,109.46 c -34.622,-61.323 -107.8,-102.59 -253.63,-58.427 25.984,14.784 53.461,37.814 72.81,55.074 26.032,23.221 52.604,51.52 60.529,72.122 102.51,-44.09 128.55,-54.15 120.29,-68.768 z"
           id="path17840"
           style="fill:#ffffff;stroke:#000000"
           inkscape:connector-curvature="0" />
        <path
           d="m 478.62213,49.07 c -80.663,-51.74 -179.64,-58.3 -254.64,-31.216 17.644,4.8918 43.237,18.748 60.233,32.316 122.72,-37.632 178.22,-7.9042 194.4,-1.1001 z"
           id="path17842"
           style="fill:#ffffff;stroke:#000000"
           inkscape:connector-curvature="0" />
        <path
           d="m 440.59213,43.22 c 0.0901,0.0332 -54.099,10.162 -75.882,-5.7797 2.2218,-9.362 17.714,-19.866 36.46,-19.422 34.04,0.80607 39.422,25.202 39.422,25.202 z"
           id="path17844"
           style="fill:#ffffff;stroke:#000000"
           inkscape:connector-curvature="0" />
      </g>
      <text
         xml:space="preserve"
         style="font-style:normal;font-weight:normal;font-size:40px;line-height:125%;font-family:Sans;letter-spacing:0px;word-spacing:0px;fill:url(#linearGradient4204);fill-opacity:1;stroke:none;stroke-width:1px;stroke-linecap:butt;stroke-linejoin:miter;stroke-opacity:1"
         id="text17846"
         sodipodi:linespacing="125%"
         inkscape:export-xdpi="2.136869"
         inkscape:export-ydpi="2.136869"><textPath
           xlink:href="#path17491"
           id="textPath17848"
           style="font-style:normal;font-variant:normal;font-weight:normal;font-stretch:normal;font-size:70px;line-height:125%;font-family:'Mametosca 026';-inkscape-font-specification:'Mametosca 026, Normal';text-align:start;writing-mode:lr-tb;text-anchor:start;fill:url(#linearGradient4204);fill-opacity:1">#SVQDEV</textPath></text>
      <path
         style="fill:none;fill-rule:evenodd;stroke:#000000;stroke-width:0;stroke-linecap:butt;stroke-linejoin:miter;stroke-miterlimit:4;stroke-dasharray:none;stroke-opacity:1"
         d="M 99.163274,310.34921 C 147.3562,132.94432 332.71363,107.83987 332.71363,107.83987"
         id="path17850"
         inkscape:connector-curvature="0"
         sodipodi:nodetypes="cc"
         inkscape:export-xdpi="2.136869"
         inkscape:export-ydpi="2.136869" />
      <circle
         inkscape:export-ydpi="2.136869"
         inkscape:export-xdpi="2.136869"
         r="336.50409"
         cy="187.85423"
         cx="280.9646"
         id="circle17852"
         style="fill:url(#linearGradient4050);fill-opacity:1;fill-rule:nonzero;stroke:#dbc565;stroke-width:0.875;stroke-miterlimit:4;stroke-dasharray:none;stroke-opacity:0" />
      <path
         inkscape:export-ydpi="2.136869"
         inkscape:export-xdpi="2.136869"
         d="m 442.35213,42.39 c -0.41667,3.125 -60.642,8.8685 -76.146,-3.2292 -15.504,-12.0977 13.226,-10.699 18.542,-10.833 43.326,-1.0946 58.021,10.937 57.604,14.062 z"
         id="path17854"
         inkscape:connector-curvature="0"
         style="fill:#1f1f1f;stroke:#000000" />
      <g
         inkscape:export-ydpi="2.136869"
         inkscape:export-xdpi="2.136869"
         style="fill:#ffffff"
         transform="translate(23.380164,9.7975012)"
         id="g17856">
        <path
           inkscape:connector-curvature="0"
           style="fill:#ffffff;stroke:#000000"
           id="path17858"
           d="m 543.91213,116.46 c -16.667,-57.5 -169.17,-153.33 -318.33,-100 -167.8,59.996 -294.09,222.65 -183.33,336.67 85.544,88.059 240.64,-30.071 292.5,-69.167 54.167,-40.833 215,-120 209.17,-167.5 z" />
        <path
           inkscape:connector-curvature="0"
           style="fill:#ffffff;stroke:#000000"
           id="path17860"
           d="m 541.41213,111.96 c -21.118,-56.018 -166.67,-148.83 -315.83,-95.5 -167.8,59.996 -300.8,256.31 -163.33,305 67.898,24.048 189.75,-62.682 270.83,-102.5 100.16,-49.186 213,-84.806 208.33,-107 z" />
        <path
           inkscape:connector-curvature="0"
           style="fill:#ffffff;stroke:#000000"
           id="path17862"
           d="m 538.91213,109.46 c -34.622,-61.323 -107.8,-102.59 -253.63,-58.427 25.984,14.784 53.461,37.814 72.81,55.074 26.032,23.221 52.604,51.52 60.529,72.122 102.51,-44.09 128.55,-54.15 120.29,-68.768 z" />
        <path
           inkscape:connector-curvature="0"
           style="fill:#ffffff;stroke:#000000"
           id="path17864"
           d="m 478.62213,49.07 c -80.663,-51.74 -179.64,-58.3 -254.64,-31.216 17.644,4.8918 43.237,18.748 60.233,32.316 122.72,-37.632 178.22,-7.9042 194.4,-1.1001 z" />
        <path
           inkscape:connector-curvature="0"
           style="fill:#ffffff;stroke:#000000"
           id="path17866"
           d="m 440.59213,43.22 c 0.0901,0.0332 -54.099,10.162 -75.882,-5.7797 2.2218,-9.362 17.714,-19.866 36.46,-19.422 34.04,0.80607 39.422,25.202 39.422,25.202 z" />
      </g>
      <text
         inkscape:export-ydpi="2.136869"
         inkscape:export-xdpi="2.136869"
         sodipodi:linespacing="125%"
         id="text17868"
         style="font-style:normal;font-weight:normal;font-size:40px;line-height:125%;font-family:Sans;letter-spacing:0px;word-spacing:0px;fill:url(#linearGradient4206);fill-opacity:1;stroke:none;stroke-width:1px;stroke-linecap:butt;stroke-linejoin:miter;stroke-opacity:1"
         xml:space="preserve"><textPath
           style="font-style:normal;font-variant:normal;font-weight:normal;font-stretch:normal;font-size:70px;line-height:125%;font-family:'Mametosca 026';-inkscape-font-specification:'Mametosca 026, Normal';text-align:start;writing-mode:lr-tb;text-anchor:start;fill:url(#linearGradient4206);fill-opacity:1"
           id="textPath17870"
           xlink:href="#path17491">#SVQDEV</textPath></text>
      <path
         inkscape:export-ydpi="2.136869"
         inkscape:export-xdpi="2.136869"
         sodipodi:nodetypes="cc"
         inkscape:connector-curvature="0"
         id="path17872"
         d="M 99.163274,310.34921 C 147.3562,132.94432 332.71363,107.83987 332.71363,107.83987"
         style="fill:none;fill-rule:evenodd;stroke:#000000;stroke-width:0;stroke-linecap:butt;stroke-linejoin:miter;stroke-miterlimit:4;stroke-dasharray:none;stroke-opacity:1" />
      <circle
         inkscape:export-ydpi="2.136869"
         inkscape:export-xdpi="2.136869"
         r="336.50409"
         cy="187.85423"
         cx="280.9646"
         id="circle17874"
         style="fill:url(#linearGradient4054);fill-opacity:1;fill-rule:nonzero;stroke:#dbc565;stroke-width:0.875;stroke-miterlimit:4;stroke-dasharray:none;stroke-opacity:0" />
      <path
         inkscape:export-ydpi="2.136869"
         inkscape:export-xdpi="2.136869"
         d="m 442.35213,42.39 c -0.41667,3.125 -60.642,8.8685 -76.146,-3.2292 -15.504,-12.0977 13.226,-10.699 18.542,-10.833 43.326,-1.0946 58.021,10.937 57.604,14.062 z"
         id="path17876"
         inkscape:connector-curvature="0"
         style="fill:#1f1f1f;stroke:#000000" />
      <g
         inkscape:export-ydpi="2.136869"
         inkscape:export-xdpi="2.136869"
         style="fill:#ffffff"
         transform="translate(23.380164,9.7975012)"
         id="g17878">
        <path
           inkscape:connector-curvature="0"
           style="fill:#ffffff;stroke:#000000"
           id="path17880"
           d="m 543.91213,116.46 c -16.667,-57.5 -169.17,-153.33 -318.33,-100 -167.8,59.996 -294.09,222.65 -183.33,336.67 85.544,88.059 240.64,-30.071 292.5,-69.167 54.167,-40.833 215,-120 209.17,-167.5 z" />
        <path
           inkscape:connector-curvature="0"
           style="fill:#ffffff;stroke:#000000"
           id="path17882"
           d="m 541.41213,111.96 c -21.118,-56.018 -166.67,-148.83 -315.83,-95.5 -167.8,59.996 -300.8,256.31 -163.33,305 67.898,24.048 189.75,-62.682 270.83,-102.5 100.16,-49.186 213,-84.806 208.33,-107 z" />
        <path
           inkscape:connector-curvature="0"
           style="fill:#ffffff;stroke:#000000"
           id="path17884"
           d="m 538.91213,109.46 c -34.622,-61.323 -107.8,-102.59 -253.63,-58.427 25.984,14.784 53.461,37.814 72.81,55.074 26.032,23.221 52.604,51.52 60.529,72.122 102.51,-44.09 128.55,-54.15 120.29,-68.768 z" />
        <path
           inkscape:connector-curvature="0"
           style="fill:#ffffff;stroke:#000000"
           id="path17886"
           d="m 478.62213,49.07 c -80.663,-51.74 -179.64,-58.3 -254.64,-31.216 17.644,4.8918 43.237,18.748 60.233,32.316 122.72,-37.632 178.22,-7.9042 194.4,-1.1001 z" />
        <path
           inkscape:connector-curvature="0"
           style="fill:#ffffff;stroke:#000000"
           id="path17888"
           d="m 440.59213,43.22 c 0.0901,0.0332 -54.099,10.162 -75.882,-5.7797 2.2218,-9.362 17.714,-19.866 36.46,-19.422 34.04,0.80607 39.422,25.202 39.422,25.202 z" />
      </g>
      <text
         inkscape:export-ydpi="2.136869"
         inkscape:export-xdpi="2.136869"
         sodipodi:linespacing="125%"
         id="text17890"
         style="font-style:normal;font-weight:normal;font-size:40px;line-height:125%;font-family:Sans;letter-spacing:0px;word-spacing:0px;fill:url(#linearGradient4208);fill-opacity:1;stroke:none;stroke-width:1px;stroke-linecap:butt;stroke-linejoin:miter;stroke-opacity:1"
         xml:space="preserve"><textPath
           style="font-style:normal;font-variant:normal;font-weight:normal;font-stretch:normal;font-size:70px;line-height:125%;font-family:'Mametosca 026';-inkscape-font-specification:'Mametosca 026, Normal';text-align:start;writing-mode:lr-tb;text-anchor:start;fill:url(#linearGradient4208);fill-opacity:1"
           id="textPath17892"
           xlink:href="#path17491">#SVQDEV</textPath></text>
      <path
         inkscape:export-ydpi="2.136869"
         inkscape:export-xdpi="2.136869"
         sodipodi:nodetypes="cc"
         inkscape:connector-curvature="0"
         id="path17894"
         d="M 99.163274,310.34921 C 147.3562,132.94432 332.71363,107.83987 332.71363,107.83987"
         style="fill:none;fill-rule:evenodd;stroke:#000000;stroke-width:0;stroke-linecap:butt;stroke-linejoin:miter;stroke-miterlimit:4;stroke-dasharray:none;stroke-opacity:1" />
      <circle
         style="fill:url(#linearGradient17918);fill-opacity:1;fill-rule:nonzero;stroke:#dbc565;stroke-width:0.875;stroke-miterlimit:4;stroke-dasharray:none;stroke-opacity:0"
         id="circle17896"
         cx="280.9646"
         cy="187.85423"
         r="336.50409"
         inkscape:export-xdpi="2.136869"
         inkscape:export-ydpi="2.136869" />
      <path
         style="fill:#1f1f1f;stroke:#000000"
         inkscape:connector-curvature="0"
         id="path17898"
         d="m 442.35213,42.39 c -0.41667,3.125 -60.642,8.8685 -76.146,-3.2292 -15.504,-12.0977 13.226,-10.699 18.542,-10.833 43.326,-1.0946 58.021,10.937 57.604,14.062 z"
         inkscape:export-xdpi="2.136869"
         inkscape:export-ydpi="2.136869" />
      <g
         id="g17900"
         transform="translate(23.380164,9.7975012)"
         style="fill:#ffffff"
         inkscape:export-xdpi="2.136869"
         inkscape:export-ydpi="2.136869">
        <path
           d="m 543.91213,116.46 c -16.667,-57.5 -169.17,-153.33 -318.33,-100 -167.8,59.996 -294.09,222.65 -183.33,336.67 85.544,88.059 240.64,-30.071 292.5,-69.167 54.167,-40.833 215,-120 209.17,-167.5 z"
           id="path17902"
           style="fill:#ffffff;stroke:#000000"
           inkscape:connector-curvature="0" />
        <path
           d="m 541.41213,111.96 c -21.118,-56.018 -166.67,-148.83 -315.83,-95.5 -167.8,59.996 -300.8,256.31 -163.33,305 67.898,24.048 189.75,-62.682 270.83,-102.5 100.16,-49.186 213,-84.806 208.33,-107 z"
           id="path17904"
           style="fill:#ffffff;stroke:#000000"
           inkscape:connector-curvature="0" />
        <path
           d="m 538.91213,109.46 c -34.622,-61.323 -107.8,-102.59 -253.63,-58.427 25.984,14.784 53.461,37.814 72.81,55.074 26.032,23.221 52.604,51.52 60.529,72.122 102.51,-44.09 128.55,-54.15 120.29,-68.768 z"
           id="path17906"
           style="fill:#ffffff;stroke:#000000"
           inkscape:connector-curvature="0" />
        <path
           d="m 478.62213,49.07 c -80.663,-51.74 -179.64,-58.3 -254.64,-31.216 17.644,4.8918 43.237,18.748 60.233,32.316 122.72,-37.632 178.22,-7.9042 194.4,-1.1001 z"
           id="path17908"
           style="fill:#ffffff;stroke:#000000"
           inkscape:connector-curvature="0" />
        <path
           d="m 440.59213,43.22 c 0.0901,0.0332 -54.099,10.162 -75.882,-5.7797 2.2218,-9.362 17.714,-19.866 36.46,-19.422 34.04,0.80607 39.422,25.202 39.422,25.202 z"
           id="path17910"
           style="fill:#ffffff;stroke:#000000"
           inkscape:connector-curvature="0" />
      </g>
      <text
         xml:space="preserve"
         style="font-style:normal;font-weight:normal;font-size:40px;line-height:125%;font-family:Sans;letter-spacing:0px;word-spacing:0px;fill:url(#linearGradient4210);fill-opacity:1;stroke:none;stroke-width:1px;stroke-linecap:butt;stroke-linejoin:miter;stroke-opacity:1"
         id="text17912"
         sodipodi:linespacing="125%"
         inkscape:export-xdpi="2.136869"
         inkscape:export-ydpi="2.136869"><textPath
           xlink:href="#path17491"
           id="textPath17914"
           style="font-style:normal;font-variant:normal;font-weight:normal;font-stretch:normal;font-size:70px;line-height:125%;font-family:'Mametosca 026';-inkscape-font-specification:'Mametosca 026, Normal';text-align:start;writing-mode:lr-tb;text-anchor:start;fill:url(#linearGradient4210);fill-opacity:1">#SVQDEV</textPath></text>
      <path
         style="fill:none;fill-rule:evenodd;stroke:#000000;stroke-width:0;stroke-linecap:butt;stroke-linejoin:miter;stroke-miterlimit:4;stroke-dasharray:none;stroke-opacity:1"
         d="M 99.163274,310.34921 C 147.3562,132.94432 332.71363,107.83987 332.71363,107.83987"
         id="path17916"
         inkscape:connector-curvature="0"
         sodipodi:nodetypes="cc"
         inkscape:export-xdpi="2.136869"
         inkscape:export-ydpi="2.136869" />
    </g>
  </g>
</svg>
