<?xml version="1.0" encoding="UTF-8" standalone="no"?>
<!-- Generator: Adobe Illustrator 17.0.1, SVG Export Plug-In . SVG Version: 6.00 Build 0)  -->

<svg
   xmlns:dc="http://purl.org/dc/elements/1.1/"
   xmlns:cc="http://creativecommons.org/ns#"
   xmlns:rdf="http://www.w3.org/1999/02/22-rdf-syntax-ns#"
   xmlns:svg="http://www.w3.org/2000/svg"
   xmlns="http://www.w3.org/2000/svg"
   xmlns:xlink="http://www.w3.org/1999/xlink"
   xmlns:sodipodi="http://sodipodi.sourceforge.net/DTD/sodipodi-0.dtd"
   xmlns:inkscape="http://www.inkscape.org/namespaces/inkscape"
   sodipodi:docname="ink_ext_XXXXXX.svgW0FVWX"
   inkscape:version="0.48.4 r9939"
   xml:space="preserve"
   enable-background="new 0 0 185 188"
   viewBox="0 0 185 188"
   height="188px"
   width="185px"
   y="0px"
   x="0px"
   id="Layer_1"
   version="1.1"><sodipodi:namedview
     pagecolor="#ffffff"
     bordercolor="#666666"
     borderopacity="1"
     objecttolerance="10"
     gridtolerance="10"
     guidetolerance="10"
     inkscape:pageopacity="0"
     inkscape:pageshadow="2"
     inkscape:window-width="1920"
     inkscape:window-height="1025"
     id="namedview3214"
     showgrid="false"
     showguides="true"
     inkscape:guide-bbox="true"
     inkscape:zoom="3.2158314"
     inkscape:cx="140.33315"
     inkscape:cy="100.35623"
     inkscape:window-x="0"
     inkscape:window-y="27"
     inkscape:window-maximized="1"
     inkscape:current-layer="Layer_1"><sodipodi:guide
       id="guide3448"
       position="-88.313088,127.18329"
       orientation="0,1" /><sodipodi:guide
       id="guide3450"
       position="-110.70232,64.058085"
       orientation="0,1" /><sodipodi:guide
       id="guide3452"
       position="-147.70675,0.93288474"
       orientation="0,1" /><sodipodi:guide
       orientation="0,1"
       position="-111.63521,75.252702"
       id="guide5683" /><sodipodi:guide
       orientation="0,1"
       position="-69.03347,138.68886"
       id="guide5701" /></sodipodi:namedview><metadata
     id="metadata3218"><rdf:RDF><cc:Work
         rdf:about=""><dc:format>image/svg+xml</dc:format><dc:type
           rdf:resource="http://purl.org/dc/dcmitype/StillImage" /><dc:title></dc:title></cc:Work></rdf:RDF></metadata><defs
     id="defs3216"><radialGradient
       id="SVGID_5_"
       cx="-310.583"
       cy="66.4552"
       r="20.1137"
       gradientTransform="matrix(0.498,0,0,0.498,172.2891,79.7388)"
       gradientUnits="userSpaceOnUse"><stop
         offset="0"
         style="stop-color:#CCCCCC"
         id="stop3111" /><stop
         offset="1"
         style="stop-color:#C0C0C0"
         id="stop3113" /></radialGradient><radialGradient
       id="SVGID_6_"
       cx="-322.6347"
       cy="56.2407"
       r="27.6582"
       gradientTransform="matrix(0.498,0,0,0.498,172.2891,79.7388)"
       gradientUnits="userSpaceOnUse"><stop
         offset="0"
         style="stop-color:#A0A0A0"
         id="stop3118" /><stop
         offset="1"
         style="stop-color:#7B7B7B"
         id="stop3120" /></radialGradient><radialGradient
       id="SVGID_7_"
       cx="-313.1831"
       cy="16.559"
       r="40.54"
       gradientTransform="matrix(0.498,0,0,0.498,172.2891,79.7388)"
       gradientUnits="userSpaceOnUse"><stop
         offset="0"
         style="stop-color:#848484"
         id="stop3125" /><stop
         offset="1"
         style="stop-color:#838383"
         id="stop3127" /></radialGradient><radialGradient
       id="SVGID_8_"
       cx="-301.1191"
       cy="6.5938"
       r="33.0584"
       gradientTransform="matrix(0.498,0,0,0.498,172.2891,79.7388)"
       gradientUnits="userSpaceOnUse"><stop
         offset="0"
         style="stop-color:#626262"
         id="stop3132" /><stop
         offset="1"
         style="stop-color:#474747"
         id="stop3134" /></radialGradient><radialGradient
       r="33.0584"
       cy="6.5938"
       cx="-301.1191"
       gradientTransform="matrix(0.498,0,0,0.498,216.2891,79.7388)"
       gradientUnits="userSpaceOnUse"
       id="radialGradient3233"
       xlink:href="#SVGID_8_"
       inkscape:collect="always" /><radialGradient
       r="40.54"
       cy="16.559"
       cx="-313.1831"
       gradientTransform="matrix(0.498,0,0,0.498,216.2891,79.7388)"
       gradientUnits="userSpaceOnUse"
       id="radialGradient3236"
       xlink:href="#SVGID_7_"
       inkscape:collect="always" /><radialGradient
       r="27.6582"
       cy="56.2407"
       cx="-322.6347"
       gradientTransform="matrix(0.498,0,0,0.498,216.2891,79.7388)"
       gradientUnits="userSpaceOnUse"
       id="radialGradient3239"
       xlink:href="#SVGID_6_"
       inkscape:collect="always" /><radialGradient
       r="20.1137"
       cy="66.4552"
       cx="-310.583"
       gradientTransform="matrix(0.498,0,0,0.498,216.2891,79.7388)"
       gradientUnits="userSpaceOnUse"
       id="radialGradient3242"
       xlink:href="#SVGID_5_"
       inkscape:collect="always" /><radialGradient
       id="SVGID_9_"
       cx="-310.265"
       cy="192.9653"
       r="20.1137"
       gradientTransform="matrix(0.498,0,0,0.498,172.2891,79.7388)"
       gradientUnits="userSpaceOnUse"><stop
         offset="0"
         style="stop-color:#FFCF4F"
         id="stop3187" /><stop
         offset="1"
         style="stop-color:#F4C236"
         id="stop3189" /></radialGradient><radialGradient
       id="SVGID_10_"
       cx="-322.3167"
       cy="182.7508"
       r="27.6582"
       gradientTransform="matrix(0.498,0,0,0.498,172.2891,79.7388)"
       gradientUnits="userSpaceOnUse"><stop
         offset="0"
         style="stop-color:#08A960"
         id="stop3194" /><stop
         offset="1"
         style="stop-color:#07914B"
         id="stop3196" /></radialGradient><radialGradient
       id="SVGID_11_"
       cx="-312.8651"
       cy="143.0691"
       r="40.54"
       gradientTransform="matrix(0.498,0,0,0.498,172.2891,79.7388)"
       gradientUnits="userSpaceOnUse"><stop
         offset="0"
         style="stop-color:#567FC0"
         id="stop3201" /><stop
         offset="1"
         style="stop-color:#557FC0"
         id="stop3203" /></radialGradient><radialGradient
       id="SVGID_12_"
       cx="-300.8011"
       cy="133.1039"
       r="33.0584"
       gradientTransform="matrix(0.498,0,0,0.498,172.2891,79.7388)"
       gradientUnits="userSpaceOnUse"><stop
         offset="0"
         style="stop-color:#E14C40"
         id="stop3208" /><stop
         offset="1"
         style="stop-color:#CD392D"
         id="stop3210" /></radialGradient><radialGradient
       r="33.0584"
       cy="133.1039"
       cx="-300.8011"
       gradientTransform="matrix(0.498,0,0,0.498,216.2891,79.7388)"
       gradientUnits="userSpaceOnUse"
       id="radialGradient3280"
       xlink:href="#SVGID_12_"
       inkscape:collect="always" /><radialGradient
       r="40.54"
       cy="143.0691"
       cx="-312.8651"
       gradientTransform="matrix(0.498,0,0,0.498,216.2891,79.7388)"
       gradientUnits="userSpaceOnUse"
       id="radialGradient3283"
       xlink:href="#SVGID_11_"
       inkscape:collect="always" /><radialGradient
       r="27.6582"
       cy="182.7508"
       cx="-322.3167"
       gradientTransform="matrix(0.498,0,0,0.498,216.2891,79.7388)"
       gradientUnits="userSpaceOnUse"
       id="radialGradient3286"
       xlink:href="#SVGID_10_"
       inkscape:collect="always" /><radialGradient
       r="20.1137"
       cy="192.9653"
       cx="-310.265"
       gradientTransform="matrix(0.498,0,0,0.498,216.2891,79.7388)"
       gradientUnits="userSpaceOnUse"
       id="radialGradient3289"
       xlink:href="#SVGID_9_"
       inkscape:collect="always" /><radialGradient
       id="SVGID_1_"
       cx="-310.583"
       cy="-60.055"
       r="20.1137"
       gradientTransform="matrix(0.498,0,0,0.498,172.2891,79.7388)"
       gradientUnits="userSpaceOnUse"><stop
         offset="0"
         style="stop-color:#FFCF4F"
         id="stop3035" /><stop
         offset="1"
         style="stop-color:#F4C236"
         id="stop3037" /></radialGradient><radialGradient
       id="SVGID_2_"
       cx="-322.6347"
       cy="-70.2695"
       r="27.6582"
       gradientTransform="matrix(0.498,0,0,0.498,172.2891,79.7388)"
       gradientUnits="userSpaceOnUse"><stop
         offset="0"
         style="stop-color:#08A960"
         id="stop3042" /><stop
         offset="1"
         style="stop-color:#07914B"
         id="stop3044" /></radialGradient><radialGradient
       id="SVGID_3_"
       cx="-313.1831"
       cy="-109.9511"
       r="40.54"
       gradientTransform="matrix(0.498,0,0,0.498,172.2891,79.7388)"
       gradientUnits="userSpaceOnUse"><stop
         offset="0"
         style="stop-color:#567FC0"
         id="stop3049" /><stop
         offset="1"
         style="stop-color:#557FC0"
         id="stop3051" /></radialGradient><radialGradient
       id="SVGID_4_"
       cx="-301.1191"
       cy="-119.9164"
       r="33.0584"
       gradientTransform="matrix(0.498,0,0,0.498,172.2891,79.7388)"
       gradientUnits="userSpaceOnUse"><stop
         offset="0"
         style="stop-color:#E14C40"
         id="stop3056" /><stop
         offset="1"
         style="stop-color:#CD392D"
         id="stop3058" /></radialGradient><radialGradient
       r="33.0584"
       cy="-119.9164"
       cx="-301.1191"
       gradientTransform="matrix(0.498,0,0,0.498,216.2891,79.7388)"
       gradientUnits="userSpaceOnUse"
       id="radialGradient3327"
       xlink:href="#SVGID_4_"
       inkscape:collect="always" /><radialGradient
       r="40.54"
       cy="-109.9511"
       cx="-313.1831"
       gradientTransform="matrix(0.498,0,0,0.498,216.2891,79.7388)"
       gradientUnits="userSpaceOnUse"
       id="radialGradient3330"
       xlink:href="#SVGID_3_"
       inkscape:collect="always" /><radialGradient
       r="27.6582"
       cy="-70.2695"
       cx="-322.6347"
       gradientTransform="matrix(0.498,0,0,0.498,216.2891,79.7388)"
       gradientUnits="userSpaceOnUse"
       id="radialGradient3333"
       xlink:href="#SVGID_2_"
       inkscape:collect="always" /><radialGradient
       r="20.1137"
       cy="-60.055"
       cx="-310.583"
       gradientTransform="matrix(0.498,0,0,0.498,216.2891,79.7388)"
       gradientUnits="userSpaceOnUse"
       id="radialGradient3336"
       xlink:href="#SVGID_1_"
       inkscape:collect="always" /></defs><path
     d="m 52.91,61 h 6.791 c 1.607,0 3.604,-1.128 4.432,-2.511 l 5.72,-9.519 c 0.677,-1.396 0.653,-3.426 -0.119,-4.713 L 66.356,38.665 52.91,61 z"
     id="path3039"
     style="fill:url(#radialGradient3336)"
     inkscape:connector-curvature="0" /><path
     d="M 60.209,33.514 45.108,58.763 C 44.524,60.011 45.131,61 46.629,61 H 52.91 L 66.356,38.665 60.21,28.492 c 0.829,1.378 0.829,3.638 -10e-4,5.022"
     id="path3046"
     style="fill:url(#radialGradient3333)"
     inkscape:connector-curvature="0" /><path
     d="m 46.629,1 c -1.614,0 -2.254,1.133 -1.424,2.511 l 24.529,40.745 c 0.772,1.288 0.795,3.317 0.119,4.713 L 75.816,39.044 52.914,1 h -6.285 z"
     id="path3053"
     style="fill:url(#radialGradient3330)"
     inkscape:connector-curvature="0" /><path
     d="m 52.914,1 22.903,38.045 3.321,-5.53 c 0.83,-1.385 0.83,-3.645 0,-5.023 L 64.133,3.511 C 63.305,2.133 61.308,1 59.701,1 h -6.787 z"
     id="path3060"
     style="fill:url(#radialGradient3327)"
     inkscape:connector-curvature="0" /><path
     d="m 52.91,124 h 6.791 c 1.607,0 3.604,-1.128 4.432,-2.511 l 5.72,-9.519 c 0.677,-1.396 0.653,-3.426 -0.119,-4.713 L 66.356,101.665 52.91,124 z"
     id="path3115"
     style="fill:url(#radialGradient3242)"
     inkscape:connector-curvature="0" /><path
     d="M 60.209,96.514 45.108,121.763 C 44.524,123.011 45.131,124 46.629,124 H 52.91 L 66.356,101.665 60.21,91.492 c 0.829,1.378 0.829,3.638 -10e-4,5.022"
     id="path3122"
     style="fill:url(#radialGradient3239)"
     inkscape:connector-curvature="0" /><path
     d="m 46.629,64 c -1.613,0 -2.254,1.133 -1.424,2.511 l 24.529,40.745 c 0.772,1.288 0.795,3.317 0.119,4.713 L 75.816,102.044 52.914,64 h -6.285 z"
     id="path3129"
     style="fill:url(#radialGradient3236)"
     inkscape:connector-curvature="0" /><path
     d="m 52.914,64 22.903,38.045 3.321,-5.53 c 0.83,-1.385 0.83,-3.645 0,-5.023 L 64.134,66.512 C 63.305,65.133 61.308,64 59.701,64 h -6.787 z"
     id="path3136"
     style="fill:url(#radialGradient3233)"
     inkscape:connector-curvature="0" /><path
     d="m 53.068,187 h 6.791 c 1.607,0 3.604,-1.128 4.432,-2.511 l 5.72,-9.519 c 0.677,-1.396 0.653,-3.426 -0.119,-4.713 L 66.514,164.665 53.068,187 z"
     id="path3191"
     style="fill:url(#radialGradient3289)"
     inkscape:connector-curvature="0" /><path
     d="m 60.368,159.514 -15.102,25.249 c -0.583,1.248 0.023,2.237 1.521,2.237 h 6.281 l 13.446,-22.335 -6.146,-10.173 c 0.829,1.378 0.829,3.638 0,5.022"
     id="path3198"
     style="fill:url(#radialGradient3286)"
     inkscape:connector-curvature="0" /><path
     d="m 46.787,127 c -1.613,0 -2.254,1.133 -1.424,2.511 l 24.529,40.745 c 0.772,1.288 0.795,3.317 0.119,4.713 L 75.974,165.044 53.072,127 h -6.285 z"
     id="path3205"
     style="fill:url(#radialGradient3283)"
     inkscape:connector-curvature="0" /><path
     d="m 53.072,127 22.903,38.045 3.321,-5.53 c 0.83,-1.385 0.83,-3.645 0,-5.023 L 64.292,129.511 C 63.463,128.133 61.467,127 59.86,127 h -6.788 z"
     id="path3212"
     style="fill:url(#radialGradient3280)"
     inkscape:connector-curvature="0" /><g
     transform="matrix(0.14417661,0,0,0.14417661,-9.8421331,-4.1674526)"
     id="g3437"><g
       style="display:none"
       id="max_width__x2F__height"
       display="none"><path
         style="display:inline"
         inkscape:connector-curvature="0"
         display="inline"
         d="M 499.001,1 V 499 H 1 V 1 h 498.001 m 1,-1 H 0 V 500 H 500.001 V 0 l 0,0 z"
         id="path3416" /></g><g
       id="androd"><path
         style="fill:#9fbf3b"
         inkscape:connector-curvature="0"
         d="m 301.314,83.298 20.159,-29.272 c 1.197,-1.74 0.899,-4.024 -0.666,-5.104 -1.563,-1.074 -3.805,-0.543 -4.993,1.199 L 294.863,80.53 c -13.807,-5.439 -29.139,-8.47 -45.299,-8.47 -16.16,0 -31.496,3.028 -45.302,8.47 L 183.314,50.12 c -1.201,-1.74 -3.439,-2.273 -5.003,-1.199 -1.564,1.077 -1.861,3.362 -0.664,5.104 l 20.166,29.272 c -32.063,14.916 -54.548,43.26 -57.413,76.34 h 218.316 c -2.855,-33.08 -25.341,-61.423 -57.402,-76.339"
         id="path3419" /><path
         style="fill:#ffffff"
         inkscape:connector-curvature="0"
         d="m 203.956,129.438 c -6.673,0 -12.08,-5.407 -12.08,-12.079 0,-6.671 5.404,-12.08 12.08,-12.08 6.668,0 12.073,5.407 12.073,12.08 0.001,6.671 -5.405,12.079 -12.073,12.079"
         id="path3421" /><path
         style="fill:#ffffff"
         inkscape:connector-curvature="0"
         d="m 295.161,129.438 c -6.668,0 -12.074,-5.407 -12.074,-12.079 0,-6.673 5.406,-12.08 12.074,-12.08 6.675,0 12.079,5.409 12.079,12.08 0,6.671 -5.406,12.079 -12.079,12.079"
         id="path3423" /><path
         style="fill:#9fbf3b"
         inkscape:connector-curvature="0"
         d="m 126.383,297.598 c 0,13.45 -10.904,24.354 -24.355,24.354 l 0,0 c -13.45,0 -24.354,-10.904 -24.354,-24.354 V 199.09 c 0,-13.45 10.904,-24.354 24.354,-24.354 l 0,0 c 13.451,0 24.355,10.904 24.355,24.354 v 98.508 z"
         id="path3425" /><path
         style="fill:#9fbf3b"
         inkscape:connector-curvature="0"
         d="m 140.396,175.489 v 177.915 c 0,10.566 8.566,19.133 19.135,19.133 h 22.633 v 54.744 c 0,13.451 10.903,24.354 24.354,24.354 13.451,0 24.355,-10.903 24.355,-24.354 v -54.744 h 37.371 v 54.744 c 0,13.451 10.902,24.354 24.354,24.354 13.452,0 24.354,-10.903 24.354,-24.354 v -54.744 h 22.633 c 10.569,0 19.137,-8.562 19.137,-19.133 V 175.489 H 140.396 z"
         id="path3427" /><path
         style="fill:#9fbf3b"
         inkscape:connector-curvature="0"
         d="m 372.734,297.598 c 0,13.45 10.903,24.354 24.354,24.354 l 0,0 c 13.45,0 24.354,-10.904 24.354,-24.354 V 199.09 c 0,-13.45 -10.904,-24.354 -24.354,-24.354 l 0,0 c -13.451,0 -24.354,10.904 -24.354,24.354 v 98.508 z"
         id="path3429" /></g></g><g
     id="g3454"
     transform="matrix(0.14417661,0,0,0.14417661,-9.8421331,121.83255)"><g
       display="none"
       id="g3456"
       style="display:none"><path
         id="path3458"
         d="M 499.001,1 V 499 H 1 V 1 h 498.001 m 1,-1 H 0 V 500 H 500.001 V 0 l 0,0 z"
         display="inline"
         inkscape:connector-curvature="0"
         style="display:inline" /></g><g
       id="g3460"><path
         id="path3462"
         d="m 301.314,83.298 20.159,-29.272 c 1.197,-1.74 0.899,-4.024 -0.666,-5.104 -1.563,-1.074 -3.805,-0.543 -4.993,1.199 L 294.863,80.53 c -13.807,-5.439 -29.139,-8.47 -45.299,-8.47 -16.16,0 -31.496,3.028 -45.302,8.47 L 183.314,50.12 c -1.201,-1.74 -3.439,-2.273 -5.003,-1.199 -1.564,1.077 -1.861,3.362 -0.664,5.104 l 20.166,29.272 c -32.063,14.916 -54.548,43.26 -57.413,76.34 h 218.316 c -2.855,-33.08 -25.341,-61.423 -57.402,-76.339"
         inkscape:connector-curvature="0"
         style="fill:#9fbf3b" /><path
         id="path3464"
         d="m 203.956,129.438 c -6.673,0 -12.08,-5.407 -12.08,-12.079 0,-6.671 5.404,-12.08 12.08,-12.08 6.668,0 12.073,5.407 12.073,12.08 0.001,6.671 -5.405,12.079 -12.073,12.079"
         inkscape:connector-curvature="0"
         style="fill:#ffffff" /><path
         id="path3466"
         d="m 295.161,129.438 c -6.668,0 -12.074,-5.407 -12.074,-12.079 0,-6.673 5.406,-12.08 12.074,-12.08 6.675,0 12.079,5.409 12.079,12.08 0,6.671 -5.406,12.079 -12.079,12.079"
         inkscape:connector-curvature="0"
         style="fill:#ffffff" /><path
         id="path3468"
         d="m 126.383,297.598 c 0,13.45 -10.904,24.354 -24.355,24.354 l 0,0 c -13.45,0 -24.354,-10.904 -24.354,-24.354 V 199.09 c 0,-13.45 10.904,-24.354 24.354,-24.354 l 0,0 c 13.451,0 24.355,10.904 24.355,24.354 v 98.508 z"
         inkscape:connector-curvature="0"
         style="fill:#9fbf3b" /><path
         id="path3470"
         d="m 140.396,175.489 v 177.915 c 0,10.566 8.566,19.133 19.135,19.133 h 22.633 v 54.744 c 0,13.451 10.903,24.354 24.354,24.354 13.451,0 24.355,-10.903 24.355,-24.354 v -54.744 h 37.371 v 54.744 c 0,13.451 10.902,24.354 24.354,24.354 13.452,0 24.354,-10.903 24.354,-24.354 v -54.744 h 22.633 c 10.569,0 19.137,-8.562 19.137,-19.133 V 175.489 H 140.396 z"
         inkscape:connector-curvature="0"
         style="fill:#9fbf3b" /><path
         id="path3472"
         d="m 372.734,297.598 c 0,13.45 10.903,24.354 24.354,24.354 l 0,0 c 13.45,0 24.354,-10.904 24.354,-24.354 V 199.09 c 0,-13.45 -10.904,-24.354 -24.354,-24.354 l 0,0 c -13.451,0 -24.354,10.904 -24.354,24.354 v 98.508 z"
         inkscape:connector-curvature="0"
         style="fill:#9fbf3b" /></g></g><g
     transform="matrix(0.14417661,0,0,0.14417661,-9.8421331,58.899662)"
     id="g3474"><g
       style="display:none"
       id="g3476"
       display="none"><path
         style="display:inline"
         inkscape:connector-curvature="0"
         display="inline"
         d="M 499.001,1 V 499 H 1 V 1 h 498.001 m 1,-1 H 0 V 500 H 500.001 V 0 l 0,0 z"
         id="path3478" /></g><g
       id="g3480"><path
         style="fill:#a6a6a6"
         inkscape:connector-curvature="0"
         d="m 301.314,83.298 20.159,-29.272 c 1.197,-1.74 0.899,-4.024 -0.666,-5.104 -1.563,-1.074 -3.805,-0.543 -4.993,1.199 L 294.863,80.53 c -13.807,-5.439 -29.139,-8.47 -45.299,-8.47 -16.16,0 -31.496,3.028 -45.302,8.47 L 183.314,50.12 c -1.201,-1.74 -3.439,-2.273 -5.003,-1.199 -1.564,1.077 -1.861,3.362 -0.664,5.104 l 20.166,29.272 c -32.063,14.916 -54.548,43.26 -57.413,76.34 h 218.316 c -2.855,-33.08 -25.341,-61.423 -57.402,-76.339"
         id="path3482" /><path
         style="fill:#ffffff"
         inkscape:connector-curvature="0"
         d="m 203.956,129.438 c -6.673,0 -12.08,-5.407 -12.08,-12.079 0,-6.671 5.404,-12.08 12.08,-12.08 6.668,0 12.073,5.407 12.073,12.08 0.001,6.671 -5.405,12.079 -12.073,12.079"
         id="path3484" /><path
         style="fill:#ffffff"
         inkscape:connector-curvature="0"
         d="m 295.161,129.438 c -6.668,0 -12.074,-5.407 -12.074,-12.079 0,-6.673 5.406,-12.08 12.074,-12.08 6.675,0 12.079,5.409 12.079,12.08 0,6.671 -5.406,12.079 -12.079,12.079"
         id="path3486" /><path
         style="fill:#a6a6a6"
         inkscape:connector-curvature="0"
         d="m 126.383,297.598 c 0,13.45 -10.904,24.354 -24.355,24.354 l 0,0 c -13.45,0 -24.354,-10.904 -24.354,-24.354 V 199.09 c 0,-13.45 10.904,-24.354 24.354,-24.354 l 0,0 c 13.451,0 24.355,10.904 24.355,24.354 v 98.508 z"
         id="path3488" /><path
         style="fill:#a6a6a6"
         inkscape:connector-curvature="0"
         d="m 140.396,175.489 v 177.915 c 0,10.566 8.566,19.133 19.135,19.133 h 22.633 v 54.744 c 0,13.451 10.903,24.354 24.354,24.354 13.451,0 24.355,-10.903 24.355,-24.354 v -54.744 h 37.371 v 54.744 c 0,13.451 10.902,24.354 24.354,24.354 13.452,0 24.354,-10.903 24.354,-24.354 v -54.744 h 22.633 c 10.569,0 19.137,-8.562 19.137,-19.133 V 175.489 H 140.396 z"
         id="path3490" /><path
         style="fill:#a6a6a6"
         inkscape:connector-curvature="0"
         d="m 372.734,297.598 c 0,13.45 10.903,24.354 24.354,24.354 l 0,0 c 13.45,0 24.354,-10.904 24.354,-24.354 V 199.09 c 0,-13.45 -10.904,-24.354 -24.354,-24.354 l 0,0 c -13.451,0 -24.354,10.904 -24.354,24.354 v 98.508 z"
         id="path3492" /></g></g><text
     xml:space="preserve"
     style="font-size:20px;font-style:normal;font-variant:normal;font-weight:600;font-stretch:normal;text-align:start;line-height:125%;letter-spacing:0px;word-spacing:0px;writing-mode:lr-tb;text-anchor:start;fill:#e6e6e5;fill-opacity:1;stroke:none;font-family:Droid Sans Hebrew;-inkscape-font-specification:Droid Sans Hebrew Semi-Bold"
     x="82.624046"
     y="150.64211"
     id="text5659"
     sodipodi:linespacing="125%"><tspan
       sodipodi:role="line"
       id="tspan5661"
       x="82.624046"
       y="150.64211"
       style="font-size:20px;font-style:normal;font-variant:normal;font-weight:600;font-stretch:normal;text-align:start;line-height:125%;writing-mode:lr-tb;text-anchor:start;font-family:Droid Sans Hebrew;-inkscape-font-specification:Droid Sans Hebrew Semi-Bold">Xtended</tspan></text>
<text
     xml:space="preserve"
     style="font-size:20px;font-style:normal;font-variant:normal;font-weight:normal;font-stretch:normal;line-height:125%;letter-spacing:0px;word-spacing:0px;fill:#e6e6e5;fill-opacity:1;stroke:none;font-family:Droid Sans Hebrew;-inkscape-font-specification:Droid Sans Hebrew"
     x="102.30636"
     y="172.72038"
     id="text5663"
     sodipodi:linespacing="125%"><tspan
       sodipodi:role="line"
       id="tspan5665"
       x="102.30636"
       y="172.72038">2015</tspan></text>
<text
     xml:space="preserve"
     style="font-size:20px;font-style:normal;font-variant:normal;font-weight:600;font-stretch:normal;text-align:start;line-height:125%;letter-spacing:0px;word-spacing:0px;writing-mode:lr-tb;text-anchor:start;fill:#4e4e4e;fill-opacity:1;stroke:none;font-family:Droid Sans Hebrew;-inkscape-font-specification:Droid Sans Hebrew Semi-Bold"
     x="82.624046"
     y="90.642113"
     id="text5675"
     sodipodi:linespacing="125%"><tspan
       sodipodi:role="line"
       id="tspan5677"
       x="82.624046"
       y="90.642113"
       style="font-size:20px;font-style:normal;font-variant:normal;font-weight:600;font-stretch:normal;text-align:start;line-height:125%;writing-mode:lr-tb;text-anchor:start;font-family:Droid Sans Hebrew;-inkscape-font-specification:Droid Sans Hebrew Semi-Bold;fill:#4e4e4e;fill-opacity:1">Xtended</tspan></text>
<text
     xml:space="preserve"
     style="font-size:20px;font-style:normal;font-variant:normal;font-weight:normal;font-stretch:normal;line-height:125%;letter-spacing:0px;word-spacing:0px;fill:#4e4e4e;fill-opacity:1;stroke:none;font-family:Droid Sans Hebrew;-inkscape-font-specification:Droid Sans Hebrew"
     x="102.30636"
     y="112.72038"
     id="text5679"
     sodipodi:linespacing="125%"><tspan
       sodipodi:role="line"
       id="tspan5681"
       x="102.30636"
       y="112.72038">2015</tspan></text>
<text
     xml:space="preserve"
     style="font-size:20px;font-style:normal;font-variant:normal;font-weight:600;font-stretch:normal;text-align:start;line-height:125%;letter-spacing:0px;word-spacing:0px;writing-mode:lr-tb;text-anchor:start;fill:#4e4e4e;fill-opacity:1;stroke:none;font-family:Droid Sans Hebrew;-inkscape-font-specification:Droid Sans Hebrew Semi-Bold"
     x="82.624046"
     y="26.642113"
     id="text5693"
     sodipodi:linespacing="125%"><tspan
       sodipodi:role="line"
       id="tspan5695"
       x="82.624046"
       y="26.642113"
       style="font-size:20px;font-style:normal;font-variant:normal;font-weight:600;font-stretch:normal;text-align:start;line-height:125%;writing-mode:lr-tb;text-anchor:start;fill:#4e4e4e;fill-opacity:1;font-family:Droid Sans Hebrew;-inkscape-font-specification:Droid Sans Hebrew Semi-Bold">Xtended</tspan></text>
<text
     xml:space="preserve"
     style="font-size:20px;font-style:normal;font-variant:normal;font-weight:normal;font-stretch:normal;line-height:125%;letter-spacing:0px;word-spacing:0px;fill:#4e4e4e;fill-opacity:1;stroke:none;font-family:Droid Sans Hebrew;-inkscape-font-specification:Droid Sans Hebrew"
     x="102.30636"
     y="48.720383"
     id="text5697"
     sodipodi:linespacing="125%"><tspan
       sodipodi:role="line"
       id="tspan5699"
       x="102.30636"
       y="48.720383">2015</tspan></text>
</svg>